<svg xmlns="http://www.w3.org/2000/svg" xmlns:xlink="http://www.w3.org/1999/xlink" xml:space="preserve" style="enable-background:new 0 0 247 60" viewBox="0 0 247 60"><defs><path id="a" d="M42.6 21.4c0-1.5-.2-2.9-.5-4.4-1.6-6.8-6.9-11.6-13.6-13.7 3.7.9 7.1 2.8 9.7 5.3-3.9-5-10-8.3-16.9-8.3C9.6.3.1 9.8.1 21.4c0 3 .7 5.9 1.8 8.6C.7 32.6.1 35.5.1 38.6c0 2.4.4 4.8 1.2 7-.3-1.4-.5-2.9-.5-4.5 0-1.8.2-3.6.7-5.3-.2 1.2-.3 2.4-.3 3.6 0 4 1.2 7.8 3.2 11 .4.3.7.7 1.1 1l-.3-.9c1.9 3.2 5.2 5.7 8.6 7.4-.3 0-.5-.2-.8-.3-1.5-.7-2.8-1.6-4.1-2.4.1.1.2.3.4.4 1.9 1.4 4 2.6 6.3 3.3 1.8.5 3.8.8 5.8.8 11.7 0 21.2-9.5 21.2-21.1 0-3.1-.6-5.9-1.8-8.6 1.1-2.6 1.8-5.5 1.8-8.6m-5.4 0c0 1-.1 1.9-.3 2.8l-1.8-1.8v.1c-3.1-2.7-7.6-5.1-13.8-5.1-6.1 0-10.6 2.3-13.6 4.9v-.1c-.7.6-1.4 1.2-2 1.9-.2-.9-.3-1.9-.3-2.8 0-4.4 1.8-8.3 4.7-11.2C13 7.4 17 5.6 21.3 5.6c4.4 0 8.4 1.8 11.2 4.6 3 2.9 4.7 6.9 4.7 11.2M34.7 30c-.6.9-1.3 1.8-2.1 2.6-2.9 2.9-6.8 4.6-11.2 4.6-4.4 0-8.4-1.8-11.2-4.6-.9-.8-1.6-1.7-2.2-2.6.6-.9 1.3-1.8 2.1-2.6 2.9-2.9 6.8-4.6 11.2-4.6 4.4 0 8.4 1.8 11.2 4.6.9.8 1.6 1.7 2.2 2.6M30.8 4.9c-.6-.2-1.4-.5-2.1-.7.5.2 1 .4 1.3.7-3.6-1.9-7.6-2.1-11.5-1.6 2.1-.5 3.9-.4 5.5-.4-.3-.1-.6-.2-.8-.3 2.3.1 5.1.8 7.6 2.3m-29 12.6V17C3.7 6.3 14.1-.7 24.8 1.2c2.7.5 5.1 1.5 7.3 2.9-1.9-1-3.9-1.8-6.1-2.2C15.2 0 3.8 6.8 1.8 17.5m3.2 4c-.1-1.9-.1-3.6.8-6 .4-1 .9-2 1.5-3-1.2 2.3-2.4 5.9-2.3 9m4.2 28.6c-.7-.8-1.4-1.8-1.9-2.8 1.4 2.2 4.1 4.9 6.8 6.2.1 0 0 0 .1.1-1.7-.8-3.3-1.6-5-3.5m23.7 5.5C28 59.4 20.8 60.2 15 57.5c3.7 1.3 8.1 1.7 11.8.5-2.2.4-4.6.7-6.9.3 4.5.3 9.4-.9 12.9-3.6.2.1.8-.4 1-.6-.4.4-.7.7-1 1.1-.5.5-.6.9.1.4m1.2-4.5c-.7.7-1.7 1.5-2.6 2.1 2.1-1.6 4.6-4.4 5.7-7.2 0-.1 0 0 .1-.1-.7 1.8-1.4 3.4-3.2 5.2m-9.5 3.6c-4 .6-7.9-.3-11-2.4-1.3-.7-2.4-1.6-3.5-2.6-2.9-2.9-4.7-6.8-4.7-11.2 0-1 .1-1.9.3-2.8.6.7 1.3 1.3 2 1.9v-.1c3.1 2.7 7.5 5 13.6 5 6.2 0 10.7-2.4 13.8-5.1v.1c.6-.5 1.3-1.1 1.8-1.8.2.9.3 1.9.3 2.8 0 4.4-1.8 8.3-4.7 11.2-2.9 2.9-6.8 4.6-11.2 4.6-2.4 0-4.6-.5-6.6-1.4 2.8 1.4 6.1 1.9 9.4 1.4C33 53 39.1 44.8 37.7 36c-.1-.3-.1-.7-.2-1l.1-.1c.2.6.3 1.2.4 1.8 1.3 8.6-4.7 16.7-13.4 18"/></defs><clipPath id="b"><use xlink:href="#a" style="overflow:visible"/></clipPath><g style="clip-path:url(#b)"><defs><path id="c" d="M-238.9-19.7h1440v900h-1440z"/></defs><clipPath id="d"><use xlink:href="#c" style="overflow:visible"/></clipPath><path d="M-4.9-4.7h52.5v69.4H-4.9z" style="clip-path:url(#d);fill:#fec10e"/></g><defs><path id="e" d="M137.8 27.4h.2c.2 0 .5-.1.6-.1.7-.4.8-1.2.8-1.5 0-.8-.4-1.3-.8-1.5-.2-.1-.4-.1-.8-.2h-2.7V20c0-.1 0-.5-.2-.8-.2-.7-.9-1-1.8-1h-.1c-1.2 0-1.6.7-1.7 1-.1.3-.2.8-.2.8v4h-2.2c-.3 0-.4 0-.7.2-.5.2-.9.8-.9 1.5 0 1 .6 1.4.8 1.5.2.1.4.1.6.1h2.5V38c0 1.5 0 2.4.2 3.2.2.6.5 1.1.7 1.3.9 1 2.3 1.5 4.4 1.5.7 0 2.5 0 2.5-1.7 0-.7-.2-1.2-.8-1.5-.2-.1-.4-.1-.7-.2h-.6c-.2 0-1.2-.1-1.6-.5-.2-.2-.4-.7-.4-1.6V27.4h2.9zm-18.9-3.8c-2.4 0-4.4 1-5.4 1.9-.1.1-.3.2-.3.3v-7.1c0-.3-.1-.6-.2-.9-.3-.6-1-1-1.8-1h-.1c-.8 0-1.5.4-1.7 1-.1.3-.2.8-.2.9v23.5c0 .1 0 .6.2.9.2.5.8 1 1.8 1s1.6-.6 1.8-1c.2-.3.2-.7.2-.9V33.1c0-.9.1-1.8.3-2.5.2-.6.8-2.2 3-3 .6-.2 1.1-.3 1.7-.3h.1c.5 0 1.7 0 2.5 1 .8.9.8 2.1.8 4.4v9.5c0 .1 0 .5.2.9.5 1 1.7 1 1.8 1 1 0 1.6-.6 1.8-1 .1-.3.2-.5.2-.8V31.4c0-1.7 0-3.3-.9-4.9-.5-.9-2.1-2.9-5.8-2.9zm-15.5.2c-.8 0-1.4.4-1.6.8-.2.3-.2.8-.2.8v.3c-.1-.1-.2-.3-.3-.4-.8-.7-2.2-1.6-4.8-1.6h-.1c-.8 0-3 0-5.2 1.6-1.6 1.2-3.5 3.6-3.5 8.4 0 5.9 3 8.1 4.7 8.9 1 .4 2.2.7 3.5.7 3 0 4.5-1.2 5.4-2.2v1.1c0 1.7-.1 3.9-2 4.8-.7.3-1.5.4-2.4.4-.9 0-2.5-.1-3.3-.9-.1-.1-.3-.3-.5-.7-.4-.5-1-.9-1.7-.9-1.1 0-2 .9-2 2 0 .3.1.6.2.9l.1.1c.4.6.8 1 1.4 1.4 1.9 1.3 4.5 1.4 5.5 1.4.9 0 4.2-.1 6.2-1.7 1.7-1.5 2-3.5 2.2-5.7V25.4c0-.3-.1-.6-.2-.9-.2-.4-.8-.7-1.4-.7zm-3 14c-.1.2-1.4 1.9-4 1.9-1.1 0-2.1-.3-2.9-1-.5-.4-.7-.7-.8-.9-.9-1.4-1-3.5-1-4.3 0-1.8.4-3.3 1.1-4.4.9-1.3 2.3-2 3.9-2 .6 0 1.9 0 3.1 1.1.7.7 1.6 2.1 1.6 4.8v.1c0 .7 0 3.2-1 4.7zm-28.2-8.6c-1-.5-2.6-.9-2.8-1l-3.5-1c-2-.6-3.1-.9-3.7-1.7-.5-.6-.5-1.5-.5-1.6 0-1.9 1.3-3.8 4.9-3.8 2.4 0 3.7.8 4.4 1.5.2.2.5.5.7.8.4.4.9.6 1.5.6 1.1 0 2-.9 2-2 0-.3-.1-.7-.2-1-.4-.6-.9-1-1.3-1.4-1.6-1.3-4-2-6.8-2h-.1c-3.6 0-6.3 1.1-7.9 3.2-.7.9-1.4 2.3-1.4 4.5 0 2.9 1.3 4.4 2.4 5.2 1 .7 1.8 1 3.7 1.6l.4.1 2.8.8h.1c1.3.4 3.2.9 4.3 1.7 1.4 1 1.6 2.2 1.6 2.9 0 .8-.2 1.4-.6 2.1-.9 1.4-2.5 2.1-5 2.1-2.9 0-4.2-.9-4.9-1.5-.6-.5-1.1-1.2-1.3-2-.3-.8-1.1-1.3-2-1.3-1.2 0-2.1.9-2.1 2.1 0 .2 0 .4.1.6.2.5.4.9.5 1.1 0 .1 0 .1.1.1.9 1.5 2 2.3 2.4 2.6 1.7 1.1 4.4 1.8 7 1.8 1.9 0 5.5-.4 7.9-2.7.5-.5 2.1-2.1 2.1-5.3-.1-3.4-1.7-5.8-4.8-7.1zm10.1-5.4c-.6 0-1.4.3-1.8 1-.1.3-.2.8-.2.9v16.5c0 .4.1.7.2.9.1.3.6 1 1.8 1 1 0 1.5-.5 1.7-1 .1-.2.2-.5.2-.9V25.7c0-.4-.1-.7-.2-.9-.2-.8-1.1-1-1.7-1zm0-7.3c-1.5 0-2.6 1.1-2.6 2.6s1 2.5 2.6 2.5h.1c1.5 0 2.5-1 2.5-2.5s-1.1-2.6-2.6-2.6zm71.6 16.6c-.9-.5-1.9-.8-2.7-1l-2.2-.7c-.1 0-.3-.1-.4-.1-.8-.2-1.8-.5-2.3-1.2-.3-.4-.3-.8-.3-1.1 0-.5.2-.9.4-1.3.5-.6 1.4-1 2.6-1 1.1 0 2.7.3 3.7 1.6 0 0 .1.1.1.2.3.5.9.7 1.4.7 1 0 1.8-.8 1.8-1.8 0-.3-.1-.7-.3-1-1.4-1.8-3.6-2.8-6.6-2.8-5.2 0-7.1 3-7.1 5.8 0 2.3 1.2 4 3.7 4.9.6.2 1.1.4 1.7.6h.1l2.2.6.2.1c1.4.4 3.2 1 3.2 2.7 0 .2 0 .9-.5 1.5-1 1.1-2.7 1.1-3.1 1.1-1.8 0-2.8-.7-3.1-.9-.4-.3-.7-.7-1-1.3-.3-.6-1-1-1.7-1-1.1 0-1.9.9-1.9 1.9 0 .3.1.7.3 1 .1.1.1.2.2.3 1.3 2.1 3.7 3.1 7 3.1 7.2 0 7.8-4.7 7.8-6.1 0-2.1-1.1-3.7-3.2-4.8zm89.8 0c-.9-.5-1.9-.8-2.7-1l-2.2-.7c-.1 0-.3-.1-.4-.1-.8-.3-1.8-.5-2.3-1.3-.3-.4-.3-.8-.3-1.1 0-.5.2-.9.4-1.3.5-.6 1.4-1 2.6-1 1.1 0 2.7.3 3.7 1.6 0 0 .1.1.1.2.3.5.9.7 1.5.7 1 0 1.8-.8 1.8-1.8 0-.3-.1-.7-.3-1-1.4-1.8-3.6-2.8-6.6-2.8-5.2 0-7.1 3-7.1 5.8 0 2.3 1.3 4 3.7 4.9.6.2 1.1.4 1.7.6l2.2.6.2.1c1.4.4 3.2 1 3.2 2.7 0 .2 0 .9-.5 1.5-1 1.1-2.7 1.1-3.1 1.1-1.8 0-2.8-.7-3.1-.9-.4-.3-.7-.7-1-1.3-.3-.6-1-1-1.7-1-1.1 0-1.9.9-1.9 1.9 0 .3.1.7.3 1 .1.1.1.2.2.3 1.3 2.1 3.7 3.1 7 3.1 7.2 0 7.8-4.7 7.8-6.1 0-2-1.1-3.6-3.2-4.7zm-15.9-9.3c-.8 0-1.4.1-1.7.2h-.1c-1.3.5-2.3 1.3-3 2.3 0 .1-.1.1-.1.2v-1c0-.3 0-.4-.2-.7-.2-.5-.7-1-1.7-1s-1.5.5-1.7 1c-.1.3-.2.8-.2.8v16.7c0 .4.1.6.2.8.1.3.5 1 1.7 1h.1c1.1 0 1.5-.5 1.7-1 .2-.3.2-.7.2-.9V35.6c0-2.6.1-3.9.7-5.1 1-2.2 3.1-2.7 4-2.9h.1l.6-.1c.4-.1 1.7-.3 1.7-1.8 0-.7-.3-1.9-2.3-1.9zm-33.9 0c-1.3 0-1.6.8-1.8 1.2l-2.5 7.7c-.9 2.6-1.3 4.1-1.6 5.4-.2-1.2-.5-1.9-.9-3.1-.1-.4-.2-.7-.4-1.2l-2.9-8.8c-.1-.3-.5-1.3-1.7-1.3-1.6 0-2.2 1.1-2.2 1.8 0 .2 0 .4.1.7v.1l5.9 16.5c.3.6.7 1.2 2 1.2s1.7-.6 2.1-1.1l5.9-16.6c.1-.4.1-.6.1-.7 0-.9-.7-1.8-2.1-1.8zm-18.7 0c-1.1 0-1.7.6-1.8 1.1-.1.2-.1.4-.1.6V25.8c-.1-.1-.2-.3-.4-.4-2-1.7-4.4-1.7-5.1-1.7-3 0-4.7 1.2-5.7 2.1-2 1.9-3 4.6-3 8.1 0 2.2.5 7.6 4.9 9.6 1.6.8 3 .8 3.7.8 3.1 0 4.8-1.2 5.5-2l.3-.3v.4c0 .3 0 .4.1.6.4 1.1 1.6 1.1 1.8 1.1.1 0 1.3 0 1.8-1 .1-.2.1-.4.2-.9V25.7c0-.1 0-.6-.2-1-.6-.8-1.7-.9-2-.9zm-3.5 15.8c-.6.6-1.5 1.4-3.6 1.4-.6 0-2 0-3.2-1.2 0 0-.5-.5-.9-1.1-.8-1.5-.9-3.8-.9-4.7v-.1c0-2.2.4-3.9 1.3-5.1.3-.4 1.3-1.8 3.7-1.8.5 0 1.9 0 3.1 1.1 1 .8 2.1 2.2 2.1 5.7.1 1.8-.1 4.2-1.6 5.8zm39.8-14.9c-1.2-.7-3-1.1-4.7-1.1-6 0-8.1 4.4-8.8 6.3-.6 1.8-.7 3.2-.7 4.2 0 3.6 1.5 8 5.6 9.5 1.7.6 3.3.6 4 .6 2.8 0 4.3-.7 5.3-1.4.8-.5 1.5-1.1 2-1.8.2-.3.4-.7.4-1.1 0-1.1-.9-1.9-2-1.9-.6 0-1.2.3-1.6.8-.2.4-.4.6-.6.8-.8.8-2.1 1.3-3.6 1.3-1.4 0-2.1-.3-2.6-.5-.7-.4-2.5-1.5-2.9-4.5-.1-.2-.1-.5-.1-.8h12.6c.2 0 .3 0 .6-.1.8-.3 1.2-.9 1.2-1.8.1-2.9-1-6.7-4.1-8.5zm.1 7.1h-10.2c0-.3.1-.5.2-.7 0-.2.3-1.1.9-1.9 1-1.5 2.4-2.1 4.3-2.1.9 0 1.3.1 1.7.3 2.1.7 2.8 2.9 2.9 3.6.2.3.2.5.2.8z"/></defs><clipPath id="f"><use xlink:href="#e" style="overflow:visible"/></clipPath><g style="clip-path:url(#f)"><defs><path id="g" d="M-238.9-19.7h1440v900h-1440z"/></defs><clipPath id="h"><use xlink:href="#g" style="overflow:visible"/></clipPath><path d="M51.8 11.5h200v44h-200z" style="clip-path:url(#h);fill:#000000"/></g></svg>
